<svg width="100%" height="100%" viewBox="0 0 16 16" fill="none" xmlns="http://www.w3.org/2000/svg">
<path d="M9.18602 5.62658L6.81268 7.99991M9.18602 8.59325L6.81268 10.9599M3.81702 7.37238C3.84054 7.16403 3.75363 6.95851 3.58777 6.83024C3.05752 6.50864 2.71446 5.95149 2.66602 5.33323C2.66602 3.86046 5.05382 2.66656 7.99935 2.66656C10.9449 2.66656 13.3327 3.86046 13.3327 5.33323C13.2842 5.95149 12.9412 6.50864 12.4109 6.83024C12.2451 6.95851 12.1582 7.16403 12.1817 7.37238L12.558 11.3896C12.6496 12.3672 11.9314 13.2339 10.9538 13.3255C10.8987 13.3306 10.8434 13.3332 10.788 13.3332H5.21071C4.22887 13.3332 3.43295 12.5373 3.43297 11.5554C3.43297 11.5001 3.43555 11.4447 3.44072 11.3896L3.81702 7.37238Z" stroke="black" style="stroke:black;stroke-opacity:1;" stroke-width="1.25" stroke-linecap="round" stroke-linejoin="round"/>
</svg>
