<svg width="100%" height="100%" viewBox="0 0 16 16" fill="none" xmlns="http://www.w3.org/2000/svg">
<path d="M8 14C11.3137 14 14 11.3137 14 8C14 4.68629 11.3137 2 8 2C4.68629 2 2 4.68629 2 8C2 11.3137 4.68629 14 8 14ZM8 14V4.66667M10.3333 5.778C9.04467 5.778 8 6.82267 8 8.11133C8 6.82267 6.95533 5.778 5.66667 5.778M10.3333 8.6228C9.04467 8.6228 8 9.66747 8 10.9561C8 9.66747 6.95533 8.6228 5.66667 8.6228M10.3333 5V9.66667C10.3333 10.9553 9.28867 12 8 12C6.71133 12 5.66667 10.9553 5.66667 9.66667V5" stroke="black" style="stroke:black;stroke-opacity:1;" stroke-width="1.25" stroke-linecap="round" stroke-linejoin="round"/>
</svg>
